ply
format ascii 1.0
element vertex 181
property float x
property float y
property float z
property uchar red
property uchar green
property uchar blue
end_header
-0.21468253 0.61138383 7.92936325 0 3 2
-1.79477132 0.79819171 12.10892072 141 97 58
-0.10296484 0.49868180 7.93473282 8 6 4
-2.02842051 0.93608895 12.07017545 241 225 254
-0.27842660 0.51992668 7.93176191 196 192 191
-0.35596641 -0.19915096 7.85941418 195 205 206
-1.64697524 1.29625495 11.92739037 99 95 94
-0.10924790 1.26404815 7.74729806 83 72 73
-0.14154928 0.37761018 7.92860837 197 154 37
-0.10924790 1.26404815 7.74729806 83 72 73
-0.13270045 1.26371343 7.75524747 89 79 79
-0.25060203 -0.17291607 7.85569238 46 124 102
-0.27842660 0.51992668 7.93176191 196 192 191
-0.13756715 -0.17275783 7.85759600 15 19 20
-0.15259138 1.15748889 7.90519846 172 25 33
-1.82759390 0.89237115 12.09613213 252 242 253
-1.96582879 0.88326988 11.94010244 210 195 227
-0.22607363 -0.16166715 7.84945613 50 129 106
-0.35596641 -0.19915096 7.85941418 195 205 206
-0.17370781 0.27600701 7.93696210 197 157 36
-0.29718397 -0.19235929 7.88762014 11 14 13
-0.32821545 0.38895351 7.94790672 180 180 179
-0.22734220 0.71648906 7.91081218 205 209 211
-0.20999718 0.33945642 7.93744065 197 154 38
-0.28270476 -0.20413761 7.85659713 11 21 22
-0.09910386 0.61176743 7.92497869 0 3 3
-0.13756715 -0.17275783 7.85759600 15 19 20
-0.27862398 0.31345049 7.94204486 175 133 27
0.10179570 0.25678221 8.09806166 1 1 3
-0.27849752 0.37601606 7.94071646 184 141 29
0.12220566 0.63689515 8.08551847 6 11 13
-0.32533269 -0.23405201 7.85865677 144 166 163
-0.40970163 -0.13976970 7.86183254 7 22 17
-0.09519593 0.39550271 7.91492376 197 196 198
-0.15320988 0.50817116 7.24721799 102 13 22
-0.13988453 0.31572777 7.93318651 208 163 42
-0.40545653 -0.48046968 7.85573970 0 1 4
-2.17718354 0.69245196 12.24187107 120 83 54
-0.22937829 0.30901856 8.15724444 188 141 50
-0.49027319 0.13123695 7.88560933 188 193 196
-0.17430688 0.32107595 7.93415048 146 27 35
-0.26463035 0.29831038 8.15255947 186 134 69
0.09164736 0.25968967 8.08954243 228 197 142
-0.16376626 -0.15029594 7.84953084 1 19 14
-0.02695523 1.08775973 7.91735536 1 3 2
-0.17767997 -0.21123443 7.82294764 2 8 6
0.09164736 0.25968967 8.08954243 228 197 142
-0.47876571 1.21365459 7.89695302 101 6 3
-0.20489227 0.80515766 7.93670322 192 197 202
-0.20556618 0.15830716 7.93989914 133 25 31
-0.44156668 0.40256491 7.95536199 4 3 2
0.01919870 0.62721429 7.90566993 9 10 8
-0.16593280 -0.20004916 7.85401917 1 8 5
-0.17370781 0.27600701 7.93696210 197 157 36
-0.20249438 0.70727739 7.92265964 0 1 0
-0.19547494 -0.17883924 7.85828100 47 125 104
-0.03326833 -0.49235257 7.84904084 17 19 22
-0.58106250 -0.51894844 7.63592419 254 237 219
-0.31581163 -0.16407355 7.84025398 18 22 23
-0.20117886 1.28414194 7.73400828 242 236 220
-0.20849780 -0.08674573 7.80504790 51 137 110
0.09699165 1.16957077 8.11704570 250 243 224
-0.49542334 0.39445462 7.83705457 238 214 190
-0.32533269 -0.23405201 7.85865677 144 166 163
-0.45916183 1.19187838 7.87562711 185 40 47
-0.24463556 0.31970369 7.94070787 135 23 30
-0.00189880 0.20147489 7.65006115 5 7 4
-0.37469347 0.34773607 7.91381452 196 198 195
-0.13406630 -0.24271907 7.85387150 147 169 167
-1.64940559 1.29789039 11.93839970 99 95 94
-0.03703996 0.35351924 7.89151767 208 210 207
-0.45070116 0.24476464 7.95791892 163 140 120
-0.03703996 0.35351924 7.89151767 208 210 207
0.03221392 0.40255459 7.91714280 236 243 245
-0.32727944 0.31067332 7.96350197 177 174 173
-0.47815582 0.00832958 7.89192144 0 1 0
-0.31581163 -0.16407355 7.84025398 18 22 23
-0.45916183 1.19187838 7.87562711 185 40 47
-0.19686485 1.21279789 7.91287667 169 25 34
-0.29284532 0.38649446 7.94450086 204 149 78
-2.53468801 0.73558483 12.17908337 143 99 64
-0.44529983 1.49555175 7.83859050 253 255 246
-0.47814105 0.01073455 7.90696540 0 1 0
-0.42615161 0.27979350 7.97680069 3 5 4
-0.47814105 0.01073455 7.90696540 0 1 0
0.05721370 0.96444838 8.05135323 20 6 2
-0.48338741 0.12322000 7.89125622 0 1 0
-0.25905766 1.12191961 7.86957430 30 0 0
0.02322899 0.61954898 7.91190347 236 236 233
-0.27969538 0.30446793 8.32253682 100 12 1
-0.12707769 0.03409881 7.94364857 104 25 30
-0.52398751 0.01945273 7.78841559 2 2 4
-0.07436432 0.14653437 7.82505569 199 208 205
-0.20856795 0.28064393 7.93580769 132 26 30
-0.48718005 0.01431762 7.88495112 132 145 143
-0.46248776 0.20680381 7.90967096 0 1 0
-0.28169186 -0.14861090 7.85747683 52 114 101
-0.16906875 -0.20749450 7.85369278 185 203 203
-0.37469347 0.34773607 7.91381452 196 198 195
-0.51392287 0.00517523 7.82358680 252 255 250
-0.17356813 1.26653977 7.74552676 102 101 99
0.07972796 -0.04630635 8.14624634 115 192 174
0.07830650 0.29516416 8.07222057 29 22 3
-1.66010779 0.88435222 12.07061466 247 231 241
0.00229385 -0.49374308 7.84808210 253 254 249
-0.39155454 0.45292921 7.99628754 7 10 15
-0.52398751 0.01945273 7.78841559 2 2 4
0.07972796 -0.04630635 8.14624634 115 192 174
-0.19686485 1.21279789 7.91287667 169 25 34
-0.50230597 0.15534348 7.86907788 176 182 185
0.07215114 0.49542572 8.06299390 47 28 6
-0.07436432 0.14653437 7.82505569 199 208 205
-0.46059051 0.23955643 7.96331915 4 0 0
-0.03917508 0.25107552 7.81177805 5 8 13
-0.51392287 0.00517523 7.82358680 252 255 250
-0.52906812 -0.00838718 7.76296920 128 97 67
-0.03511003 -0.50491731 7.86066135 7 8 11
-0.43060087 -0.17613082 7.85669988 55 127 108
-0.16170935 1.27717967 7.73532334 107 103 89
-0.29284532 0.38649446 7.94450086 204 149 78
-0.61302380 -0.53828973 7.57080963 239 228 215
-0.16906875 -0.20749450 7.85369278 185 203 203
-0.43060087 -0.17613082 7.85669988 55 127 108
-0.60562935 0.11574987 7.67935760 38 92 73
0.21418548 1.21975710 7.96839955 116 97 81
-0.21128466 0.04607028 7.96852990 13 11 16
-1.57306101 1.36346641 11.92955698 0 2 1
-0.59455929 0.11540626 7.68126715 182 218 206
-3.03967562 0.66322052 12.05715220 141 98 64
0.01815502 0.49445387 7.91066325 11 17 16
-0.28938657 1.27807215 7.72461330 244 239 222
0.11218039 1.23727334 7.84925820 215 202 187
0.02899628 -0.04207070 7.83204128 128 224 194
-1.56451892 0.82032716 12.16747577 155 106 65
-0.57241235 0.13077462 7.71138341 17 36 16
-0.60932603 0.12790163 7.68939472 161 189 175
-0.55820084 0.06037438 7.69207032 216 196 170
-0.46941013 0.34704101 7.87399707 159 111 63
-0.22100701 1.23233352 7.92234311 46 0 1
-0.47088824 0.02360397 7.91751995 0 2 1
-0.51354621 0.39281267 7.78783384 214 197 171
0.01563766 0.42005999 7.91208488 5 10 14
-0.46812705 -0.47903093 7.87502921 2 2 3
-0.60271013 0.16859556 7.68081109 78 124 104
-0.46827378 -0.47035541 7.88522369 31 31 31
0.07351425 0.41826651 8.04731090 43 31 11
-1.64940559 1.29789039 11.93839970 99 95 94
-1.57306101 1.36346641 11.92955698 0 2 1
-0.53523099 -0.01098639 7.74999475 225 205 174
0.24656698 1.19910455 8.06189900 225 213 199
0.24039310 1.20796097 8.01746976 107 96 87
-0.47371170 -0.41127890 7.88078316 19 15 15
0.06736735 0.59093051 8.05447671 253 255 254
-1.64067962 1.49434025 11.93436125 121 124 134
-0.01066323 0.20631849 7.67445734 6 9 12
-0.41412018 -0.17643704 7.86250477 8 17 11
0.25256777 1.22544769 8.05248501 236 232 221
-0.41598792 0.95494753 7.88371733 215 217 215
-0.23541072 1.13190197 7.90633694 176 44 58
-0.13405288 0.25857946 7.08402707 143 27 24
-0.13405288 0.25857946 7.08402707 143 27 24
-0.24509929 1.12598143 7.89673202 42 0 0
-0.39886021 0.25149016 8.09382883 2 4 3
-0.13406630 -0.24271907 7.85387150 147 169 167
-0.39886021 0.25149016 8.09382883 2 4 3
-0.56624213 0.26027815 7.73315637 204 191 158
-0.61142755 1.43214836 7.91992606 254 255 247
-0.42637153 1.53429102 7.87393238 249 247 239
0.25884508 -0.03405397 7.66420921 156 192 158
0.00470605 -0.23758011 7.82521276 22 26 29
0.24039786 1.20276217 8.04135659 121 109 97
0.03664524 1.08701289 7.94636830 82 74 65
-0.16170935 1.27717967 7.73532334 107 103 89
-0.15705015 1.27330043 7.75393243 242 239 227
0.13338319 -0.33314971 8.20153733 45 30 14
0.01317431 -0.49276124 7.89036109 55 56 52
-0.59091283 0.25942254 7.81236161 71 128 95
0.00321636 -0.43774545 7.86361625 1 3 2
-0.29638952 1.26628230 7.70958087 81 83 78
-0.51535195 0.11668903 7.81730861 202 206 205
-0.47172026 -0.17959610 7.87496290 105 181 155
